<svg xmlns="http://www.w3.org/2000/svg" viewBox="0 0 84.58 85.04"><defs><style>.cls-1{fill:#e99123;}.cls-2{fill:#243e92;}</style></defs><title>ICON-Preferencial</title><g id="Layer_2" data-name="Layer 2"><g id="Page_3" data-name="Page 3"><path class="cls-1" d="M44.71,0c1.25.22,2.5.39,3.74.66A29.34,29.34,0,0,1,71,24.15,29.2,29.2,0,0,1,67.79,43.8Q57.37,63,46.85,82.16a5.17,5.17,0,0,1-9.27,0L16.63,43.81A29.63,29.63,0,0,1,37.36.37C38.15.23,38.94.12,39.73,0ZM42.25,14.62a12,12,0,1,0,11.93,12A12,12,0,0,0,42.25,14.62Z"/><path class="cls-2" d="M84.33,30.29a4.34,4.34,0,0,1-1.69,1.49c-1.43.76-2.87,1.46-4.3,2.16s-3.16,1.55-4.72,2.31a1.83,1.83,0,0,0-.49.33c-2.15,2.1-4.3,4.22-6.49,6.32a1.87,1.87,0,0,1-.58.4c-.62.33-1.27.63-1.92.94-.46.21-.75.21-1-.06s-.26-.52,0-.91L65,40.44a2.71,2.71,0,0,0,.22-.36c-1.49.45-2.9.88-4.3,1.33-1.85.57-5.25,1.6-6.89,2.07a16.43,16.43,0,0,0-2,.74,102,102,0,0,1-12.93,4.7C19.8,54.45,2.63,52.69.13,46.09c-.72-1.91,1.69-6,5.31-7.26,4.23-1.49,11.82.24,18.53,2.92.75.3.59.57,0,.42-7.36-1.73-18.24-2.46-20.52-1-.88.52-1.24,1.24-1.07,1.88,1.69,6.41,22,8.15,39.44,3.16a105,105,0,0,0,11-3.92s.61-.33.94-.48c-.62-.7-1.21-1.4-1.79-2.1-.88-1-1.73-2-2.61-3-.45-.55-.36-1,.3-1.37.29-.15.55-.27.81-.39a1.13,1.13,0,0,1,1.11,0c2,1,3.95,1.89,5.92,2.88h.72C64.14,35,70,32.14,75.9,29.28a9.24,9.24,0,0,1,4-1c.82,0,1.63-.19,2.48-.16a3.58,3.58,0,0,1,1.46.37A1.1,1.1,0,0,1,84.33,30.29Z"/></g></g></svg>